<?xml version="1.0" standalone="no"?>
<!DOCTYPE svg PUBLIC "-//W3C//DTD SVG 20010904//EN"
 "http://www.w3.org/TR/2001/REC-SVG-20010904/DTD/svg10.dtd">
<svg version="1.0" xmlns="http://www.w3.org/2000/svg"
 width="360.000000pt" height="360.000000pt" viewBox="0 0 360.000000 360.000000"
 preserveAspectRatio="xMidYMid meet">
<metadata>
Created by potrace 1.14, written by Peter Selinger 2001-2017
</metadata>
<g transform="translate(0.000000,360.000000) scale(0.100000,-0.100000)"
fill="#000000" stroke="none">
<path d="M1868 3205 c-2 -1 -40 -5 -85 -8 -45 -3 -93 -11 -105 -18 -13 -7 -23
-11 -23 -8 0 2 -22 -5 -50 -15 -64 -24 -143 -75 -186 -119 -50 -50 -98 -107
-92 -107 4 0 -1 -8 -9 -17 -30 -34 -75 -142 -70 -165 1 -5 -2 -8 -6 -8 -5 0
-9 -15 -11 -32 -6 -90 -6 -197 0 -228 13 -65 19 -85 28 -105 5 -11 16 -36 25
-56 9 -20 22 -42 31 -49 8 -7 15 -19 15 -27 0 -22 158 -175 173 -167 9 5 9 4
1 -5 -7 -8 -28 -5 -81 13 -39 13 -73 22 -76 20 -2 -3 -17 0 -33 6 -16 7 -54
18 -84 26 -30 8 -62 17 -70 19 -8 3 -40 11 -70 19 -30 8 -95 25 -145 39 -242
68 -497 137 -505 137 -15 0 -1 -204 15 -230 3 -6 1 -10 -6 -10 -8 0 -8 -4 -1
-12 5 -7 13 -26 15 -43 14 -73 54 -202 67 -210 5 -3 7 -12 3 -20 -3 -8 1 -15
8 -15 7 0 10 -3 7 -6 -6 -5 70 -158 102 -204 9 -14 20 -33 23 -42 4 -10 11
-18 17 -18 5 0 10 -5 10 -10 0 -6 10 -22 23 -35 12 -13 30 -33 39 -45 28 -37
131 -142 178 -182 29 -24 41 -41 35 -47 -10 -9 -152 -119 -678 -523 l-297
-229 0 -234 0 -235 1800 0 1800 0 0 259 0 258 -26 19 c-14 10 -31 24 -38 29
-6 6 -29 24 -51 40 -22 17 -42 32 -45 35 -3 3 -23 18 -45 35 -22 16 -42 32
-45 35 -3 3 -20 16 -38 29 -18 12 -29 27 -26 33 4 7 2 8 -4 4 -7 -4 -35 12
-65 36 -29 24 -66 52 -82 63 -16 11 -38 29 -50 40 -12 11 -29 25 -38 30 -19
12 -193 145 -224 171 -12 11 -50 39 -83 64 l-62 45 37 30 c119 97 279 285 345
405 25 44 93 192 96 205 1 6 9 33 19 60 9 28 19 61 22 75 9 45 11 55 14 55 1
0 3 14 4 30 1 17 5 37 8 45 3 8 9 44 12 79 3 35 7 66 10 69 2 3 0 13 -5 23 -6
11 -6 19 0 21 5 2 6 9 1 16 -7 11 -35 7 -147 -23 -77 -21 -143 -38 -149 -40
-5 -1 -17 -5 -25 -8 -12 -5 -167 -47 -230 -63 -26 -6 -263 -72 -304 -84 -41
-12 -71 -20 -96 -25 -8 -1 -22 -5 -30 -8 -35 -13 -84 -27 -92 -27 -5 0 17 21
49 47 32 26 69 60 83 76 42 49 101 150 113 195 6 23 14 42 17 42 13 0 17 244
5 310 -7 36 -10 45 -41 115 -59 134 -211 273 -351 320 -49 17 -170 44 -175 40z"/>
</g>
</svg>
