<?xml version="1.0" encoding="utf-8"?>
<!-- Generator: Adobe Illustrator 22.0.1, SVG Export Plug-In . SVG Version: 6.00 Build 0)  -->
<svg version="1.1" id="Layer_1" xmlns="http://www.w3.org/2000/svg" xmlns:xlink="http://www.w3.org/1999/xlink" x="0px" y="0px"
	 viewBox="0 0 86.1 38.1" style="enable-background:new 0 0 86.1 38.1;" xml:space="preserve">
<style type="text/css">
	.st0{clip-path:url(#SVGID_2_);}
	.st1{fill:#304C58;}
	.st2{fill:#00BABC;}
</style>
<title>merit_logo_dark</title>
<g id="Layer_2_1_">
	<g id="Layer_1-2">
		<g>
			<g>
				<g>
					<g>
						<defs>
							<rect id="SVGID_1_" x="11.8" y="1.8" width="63.8" height="21.6"/>
						</defs>
						<clipPath id="SVGID_2_">
							<use xlink:href="#SVGID_1_"  style="overflow:visible;"/>
						</clipPath>
						<g class="st0">
							<path class="st1" d="M30.7,12.4c0-2.4-0.9-4-2.6-4c-2,0-3.6,2.2-3.6,4.4v8c0,1,0.5,1.3,2.4,1.3V23h-4.4V12.4
								c0-2.4-0.9-4-2.6-4c-2,0-3.6,2.2-3.6,4.4v8c0,1,0.5,1.3,2.3,1.3V23h-6.8v-0.9c2,0,2.5-0.3,2.5-1.3V10.1c0-1-0.5-1.3-2.3-1.3
								V7.9l4.2-0.2v2.2h0.1c1-1.5,2-2.4,3.8-2.4c1.9-0.1,3.6,1.1,4.2,2.9c0.6-1.7,2.2-2.9,4-2.9c2.8,0,4.3,1.9,4.3,4.7v8.6
								c0,1,0.5,1.3,2.4,1.3V23h-4.4V12.4H30.7z"/>
							<path class="st1" d="M45.1,13.8c0-2.8-0.8-6-4.1-6c-2.9,0-4.3,3.1-4.3,6H45.1z M36.8,14.8v1c0,3.8,1.7,6.7,4.9,6.7
								c2.8,0,3.9-1.3,5.1-3.2l0.8,0.5c-1.9,3-3.4,3.6-6.1,3.6c-4.4,0-7.1-4.1-7.1-8.3c0-4.9,2.6-8.3,7-8.3c4,0,6.2,4,6.2,7.9
								L36.8,14.8z"/>
							<path class="st1" d="M50.2,9.5c0-1-0.5-1.3-2.5-1.3v-1L52.4,7v4h0.1c0.7-1.9,1.9-4.2,4.2-4.2c1.3-0.1,2.4,0.9,2.5,2.1
								c0,0.1,0,0.1,0,0.2c0.1,0.8-0.5,1.6-1.3,1.7c-0.1,0-0.1,0-0.2,0c-0.8,0.1-1.4-0.5-1.5-1.3c0-0.1,0-0.2,0-0.3
								c0-0.6,0.3-1.1,0.8-1.3c-0.1-0.1-0.3-0.2-0.5-0.1c-0.8,0-2.8,1-3.6,4.9c-0.4,2.5-0.5,4.9-0.4,7.4c0,1.7,0.5,2,2.9,2V23h-7.6
								v-1c2,0,2.6-0.3,2.6-1.3V9.5H50.2z"/>
							<path class="st1" d="M66.8,23h-7.5v-1c2.2,0,2.8-0.3,2.8-1.3V9.5c0-1-0.5-1.3-2.5-1.3v-1L64.2,7v13.7c0,1,0.5,1.3,2.6,1.3
								L66.8,23z"/>
							<path class="st1" d="M75.1,6.8v1h-4.8v11.9c0,2.1,1,2.8,2.1,2.8c0.9,0,2.3-0.7,2.3-3.4v-1.4h0.9v1.2c0,2.7-1.2,4.6-3.8,4.6
								c-2.3,0-3.7-1.3-3.7-3.9V7.8h-2.4v-1c2.7,0,3.5-2.8,3.7-5h0.9v5H75.1z"/>
						</g>
					</g>
				</g>
			</g>
		</g>
	</g>
</g>
<g>
	<path class="st2" d="M2.2,29.8h0.3l2.1,2.6v-2.6H5v3.5H4.7l-2.1-2.6v2.6H2.2V29.8z"/>
	<path class="st2" d="M5.7,29.8h2.1v0.4H6.1v1.1h1.3v0.4H6.1v1.2h1.6v0.4H5.7V29.8z"/>
	<path class="st2" d="M9.3,30.2H8.1v-0.4H11v0.4H9.8v3.1H9.3V30.2z"/>
	<path class="st2" d="M11.1,29.8h0.5l0.8,2.5c0,0.1,0,0.2,0,0.2c0,0,0-0.1,0.1-0.2l0.8-2.5h0.3l0.8,2.5c0,0.1,0.1,0.2,0.1,0.2
		s0-0.1,0-0.2l0.8-2.5h0.4l-1.2,3.5h-0.3l-0.8-2.4c0,0-0.1-0.2-0.1-0.2c0,0,0,0.1-0.1,0.2l-0.8,2.4h-0.3L11.1,29.8z"/>
	<path class="st2" d="M15.9,31.6c0-1.1,0.8-1.8,1.8-1.8c1.1,0,1.8,0.8,1.8,1.8s-0.8,1.8-1.8,1.8C16.6,33.4,15.9,32.6,15.9,31.6z
		 M19.1,31.6c0-0.8-0.6-1.4-1.4-1.4c-0.8,0-1.4,0.6-1.4,1.4c0,0.8,0.6,1.4,1.4,1.4C18.5,33,19.1,32.4,19.1,31.6z"/>
	<path class="st2" d="M20.1,29.8h1.1c0.8,0,1.1,0.5,1.1,1c0,0.4-0.2,0.8-0.7,1l1,1.5h-0.5l-1-1.4h-0.6v1.4h-0.5V29.8z M21.2,31.5
		c0.5,0,0.7-0.3,0.7-0.6s-0.2-0.6-0.7-0.6h-0.7v1.3H21.2z"/>
	<path class="st2" d="M23,29.8h0.5v1.6l1.6-1.6h0.5L24,31.5l1.9,1.8h-0.6l-1.7-1.7v1.7H23V29.8z"/>
	<path class="st2" d="M26.3,32.8h0.5v0.5h-0.5V32.8z"/>
	<path class="st2" d="M28.5,32.9l0.1-0.4c0.2,0.2,0.6,0.5,1,0.5c0.4,0,0.7-0.2,0.7-0.6c0-0.4-0.2-0.5-0.8-0.7c-0.7-0.2-1-0.5-1-1
		c0-0.5,0.4-0.9,1.1-0.9c0.4,0,0.7,0.2,0.9,0.3l-0.1,0.4c-0.2-0.2-0.6-0.3-0.8-0.3c-0.4,0-0.7,0.2-0.7,0.5c0,0.2,0.2,0.5,0.7,0.6
		c0.7,0.2,1.1,0.5,1.1,1.1c0,0.7-0.6,1-1.2,1C29.1,33.4,28.7,33.1,28.5,32.9z"/>
	<path class="st2" d="M31.4,29.8h2.1v0.4h-1.6v1.1h1.3v0.4h-1.3v1.2h1.6v0.4h-2.1V29.8z"/>
	<path class="st2" d="M33.8,31.6c0-1.1,0.8-1.8,1.8-1.8c0.4,0,0.9,0.1,1.2,0.4v0.5c-0.3-0.3-0.7-0.5-1.2-0.5c-0.8,0-1.4,0.6-1.4,1.4
		c0,0.9,0.6,1.4,1.4,1.4c0.5,0,0.9-0.2,1.2-0.5V33c-0.3,0.2-0.8,0.4-1.2,0.4C34.6,33.4,33.8,32.7,33.8,31.6z"/>
	<path class="st2" d="M37.4,31.7v-1.9h0.5v1.9c0,0.9,0.4,1.3,1,1.3s1-0.4,1-1.3v-1.9h0.4v1.9c0,1.2-0.6,1.7-1.5,1.7
		S37.4,32.9,37.4,31.7z"/>
	<path class="st2" d="M41.1,29.8h1.1c0.8,0,1.1,0.5,1.1,1c0,0.4-0.2,0.8-0.7,1l1,1.5h-0.5l-1-1.4h-0.6v1.4h-0.5V29.8z M42.3,31.5
		c0.5,0,0.7-0.3,0.7-0.6s-0.2-0.6-0.7-0.6h-0.7v1.3H42.3z"/>
	<path class="st2" d="M44.1,29.8h0.5v3.5h-0.5V29.8z"/>
	<path class="st2" d="M46.1,30.2h-1.2v-0.4h2.9v0.4h-1.2v3.1h-0.5V30.2z"/>
	<path class="st2" d="M49.2,31.9l-1.4-2.1h0.5l1.1,1.7l1.1-1.7H51l-1.4,2.1v1.4h-0.5V31.9z"/>
	<path class="st2" d="M50.9,32.8h0.5v0.5h-0.5V32.8z"/>
	<path class="st2" d="M53.1,31.6c0-1.1,0.8-1.8,1.8-1.8c0.4,0,0.9,0.1,1.2,0.4v0.5c-0.3-0.3-0.7-0.5-1.2-0.5c-0.8,0-1.4,0.6-1.4,1.4
		c0,0.9,0.6,1.4,1.4,1.4c0.5,0,0.9-0.2,1.2-0.5V33c-0.3,0.2-0.8,0.4-1.2,0.4C54,33.4,53.1,32.7,53.1,31.6z"/>
	<path class="st2" d="M56.5,31.6c0-1.1,0.8-1.8,1.8-1.8c1.1,0,1.8,0.8,1.8,1.8s-0.8,1.8-1.8,1.8C57.3,33.4,56.5,32.6,56.5,31.6z
		 M59.7,31.6c0-0.8-0.6-1.4-1.4-1.4c-0.8,0-1.4,0.6-1.4,1.4c0,0.8,0.6,1.4,1.4,1.4C59.2,33,59.7,32.4,59.7,31.6z"/>
	<path class="st2" d="M60.8,29.8h0.4l1.3,2.9l1.3-2.9h0.4v3.5h-0.4v-2.4c0-0.1,0-0.3,0-0.3c0,0-0.1,0.2-0.1,0.3l-1.1,2.4h-0.3
		l-1.1-2.4c0-0.1-0.1-0.3-0.1-0.3c0,0,0,0.2,0,0.3v2.4h-0.4V29.8z"/>
	<path class="st2" d="M65,29.8h0.4l1.3,2.9l1.3-2.9h0.4v3.5h-0.4v-2.4c0-0.1,0-0.3,0-0.3c0,0-0.1,0.2-0.1,0.3l-1.1,2.4h-0.3
		l-1.1-2.4c0-0.1-0.1-0.3-0.1-0.3c0,0,0,0.2,0,0.3v2.4H65V29.8z"/>
	<path class="st2" d="M69.3,31.7v-1.9h0.5v1.9c0,0.9,0.4,1.3,1,1.3s1-0.4,1-1.3v-1.9h0.4v1.9c0,1.2-0.6,1.7-1.5,1.7
		S69.3,32.9,69.3,31.7z"/>
	<path class="st2" d="M73,29.8h0.3l2.1,2.6v-2.6h0.4v3.5h-0.3l-2.1-2.6v2.6H73V29.8z"/>
	<path class="st2" d="M76.5,29.8h0.5v3.5h-0.5V29.8z"/>
	<path class="st2" d="M78.6,30.2h-1.2v-0.4h2.9v0.4H79v3.1h-0.5V30.2z"/>
	<path class="st2" d="M81.6,31.9l-1.4-2.1h0.5l1.1,1.7l1.1-1.7h0.5l-1.4,2.1v1.4h-0.5V31.9z"/>
	<path class="st2" d="M83.3,32.8h0.5v0.5h-0.5V32.8z"/>
</g>
</svg>
